<?xml version="1.0" standalone="yes"?>
<svg xmlns="http://www.w3.org/2000/svg" width="100" height="100">
<path style="fill:#f02408; stroke:none;" d="M0 0L0 13C11.4761 13 13 11.4761 13 0L0 0z"/>
<path style="fill:#8149b9; stroke:none;" d="M13 0C13 10.9816 10.9816 13 0 13L0 37L12 37L12 25L25 25L25 12L37 12L37 0L13 0z"/>
<path style="fill:#05affa; stroke:none;" d="M37 0L37 12L25 12L25 25L12 25L12 37L0 37L0 50L12 50C12 39.0184 14.0184 37 25 37L25 25L37 25C37 14.0184 39.0184 12 50 12L50 0L37 0z"/>
<path style="fill:#73fd0b; stroke:none;" d="M50 0L50 12C38.5239 12 37 13.5239 37 25L25 25L25 37C13.5239 37 12 38.5239 12 50L0 50L0 62L12 62L12 50L25 50L25 37L37 37L37 25L50 25L50 12L62 12L62 0L50 0z"/>
<path style="fill:#faf801; stroke:none;" d="M62 0L62 12L50 12L50 25L37 25L37 37L25 37L25 50L12 50L12 62L0 62L0 75L13 75L13 63L25 63L25 50L38 50L38 38L50 38L50 25L63 25L63 13L75 13L75 0L62 0z"/>
<path style="fill:#f02408; stroke:none;" d="M75 0L75 13L63 13L63 25L50 25L50 38L38 38L38 50L25 50L25 63L13 63L13 75L0 75L0 100L25 100L25 87L37 87L37 75L50 75L50 62L62 62L62 50L75 50L75 37L87 37L87 25L100 25L100 0L75 0z"/>
<path style="fill:#faf801; stroke:none;" d="M87 25L87 37L75 37L75 50L62 50L62 62L50 62L50 75L37 75L37 87L25 87L25 100L38 100L38 88L50 88L50 75L63 75L63 63L75 63L75 50L88 50L88 38L100 38L100 25L87 25z"/>
<path style="fill:#73fd0b; stroke:none;" d="M88 38L88 50L75 50L75 63L63 63L63 75L50 75L50 88L38 88L38 100L50 100L50 88C61.4761 88 63 86.4761 63 75L75 75L75 63C86.4761 63 88 61.4761 88 50L100 50L100 38L88 38z"/>
<path style="fill:#05affa; stroke:none;" d="M88 50C88 60.9816 85.9816 63 75 63L75 75L63 75C63 85.9816 60.9816 88 50 88L50 100L63 100L63 88L75 88L75 75L88 75L88 63L100 63L100 50L88 50z"/>
<path style="fill:#8149b9; stroke:none;" d="M88 63L88 75L75 75L75 88L63 88L63 100L87 100C87 89.0184 89.0184 87 100 87L100 63L88 63z"/>
<path style="fill:#f02408; stroke:none;" d="M87 100L100 100L100 87C88.5239 87 87 88.5239 87 100z"/>
</svg>
