<?xml version="1.0" standalone="yes"?>
<svg xmlns="http://www.w3.org/2000/svg" width="100" height="100">
<path style="fill:#f293ec; stroke:none;" d="M0 0L0 77L10 73L12 67L8 67L14 50L8 50L12 42L12 41L12 40C7.66368 33.6911 18.7519 25.4603 23.8079 22.8225C36.8039 16.0424 62.2151 16.2004 75.385 22.4228C80.6332 24.9024 92.4588 33.5128 88 40L88 41L88 42L92 44L92 45L92 46L93.0363 54.0139L90 73L100 77L100 0L0 0z"/>
<path style="fill:#170f0c; stroke:none;" d="M15 31C21.1594 27.9627 25.3339 23.7298 32.2855 21.7106C51.5397 16.118 68.7864 23.005 85 31C77.0275 14.832 43.3077 15.8698 28.8696 20.5988C22.9876 22.5253 17.8431 25.2344 15 31z"/>
<path style="fill:#e9ab46; stroke:none;" d="M13 39L87 39C82.3932 19.4848 60.6409 20.3636 44.804 22.0309C30.9401 23.4905 17.1808 21.2894 13 39z"/>
<path style="fill:#cbdae0; stroke:none;" d="M42 21L42 23L46 23L46 21L42 21M60 21L60 23L65 23L65 21L60 21M33 23L33 25L38 24L33 23M54 23L54 25L58 25L58 23L54 23M46 25L46 27L50 27L50 25L46 25M65 25L65 27L69 27L69 25L65 25M29 27L29 29L33 29L33 27L29 27z"/>
<path style="fill:#af572f; stroke:none;" d="M14 29L14 32L15 32L14 29M85 29L85 32L86 32L85 29M12 31L10 48C16.5628 48.1914 33.2372 53.4505 38 48L39 48L40 48L50 52L50 54C46.193 54.1155 43.8418 54.4869 42 58L54 58L54 60L40 60L40 61L42 62L38 62L37 63C39.6771 69.6598 51.9111 67 58 67L56 63L60 63L60 62L54 63L54 60L58 61L58 60L56 58L67 58L65 50L60 50L60 48C68.3311 48.0285 86.5977 55.0393 90 43L87 44L88 31L87 31L85 35L85 36L87 39L13 39L15 36L15 35L12 31z"/>
<path style="fill:#170f0c; stroke:none;" d="M13 31L15 35L13 31M86 31L85 35L86 31z"/>
<path style="fill:#af572f; stroke:none;" d="M10 35L11 36L10 35z"/>
<path style="fill:#170f0c; stroke:none;" d="M11 35L11 40L12 40L11 35M88 35L88 40L89 40L88 35z"/>
<path style="fill:#af572f; stroke:none;" d="M89 35L90 36L89 35M10 39L11 40L10 39M89 39L90 40L89 39z"/>
<path style="fill:#170f0c; stroke:none;" d="M13 40L13 42L31 42L27 48L31 44L32 44L33 44L37 48L33 42L52 42L44 50C51.4782 47.0013 52.4137 44.3132 60 48L56 42L87 42L87 40L13 40M10 42L13 46L10 42M87 44L90 42L87 44M17 48L19 46L20 46L21 46L23 48L23 44L17 48M69 48L83 48L83 46C77.7359 44.8267 72.169 41.9555 69 48M90 44L90 46L92 46L92 44L90 44M8 46L8 50L21 52L21 54L12 58L12 54L11 54C9.99433 56.8001 7.4137 61.6998 8.65741 64.6636C10.9261 70.07 14.8128 62.368 15 60L19 60L23 67L13 67L13 69L88 69C88.7878 74.3595 92.9312 76.3247 98 77L98 79L2 79L2 77C7.06883 76.3247 11.2122 74.3595 12 69L10 69L10 73C4.93117 73.6753 0.787754 75.6405 0 81L100 81C99.2122 75.6405 95.0688 73.6753 90 73L93.4676 54.0147L90 46C78.5746 50.4409 71.6577 48.009 60 48L60 50L83 52L77 58L77 59L77 60L85 65L85 67L69 67L69 65L77 63L77 61L60 67L60 63L56 63L58 67L38 65C30.0315 67.5959 22.5469 69.0994 21 58L33 60L27 52L44 52L38 56L38 58L54 60L54 58L42 58L50 54L50 52L40 48L39 48L38 48C31.5919 52.8547 15.1324 48.7343 8 46z"/>
<path style="fill:#af572f; stroke:none;" d="M14 50L14 54L15 54L14 50z"/>
<path style="fill:#e9ab46; stroke:none;" d="M83 50L83 52L92 54C89.978 50.1433 87.0912 50.046 83 50z"/>
<path style="fill:#af572f; stroke:none;" d="M12 52L12 58L13 58L12 52z"/>
<path style="fill:#170f0c; stroke:none;" d="M13.3333 52.6667L13.6667 53.3333L13.3333 52.6667z"/>
<path style="fill:#e9ab46; stroke:none;" d="M13 58L21 54L21 52C16.2888 52.1429 13.7264 53.0584 13 58z"/>
<path style="fill:#af572f; stroke:none;" d="M23 52L17 56L17 58L27 56L25 52L23 52z"/>
<path style="fill:#e9ab46; stroke:none;" d="M27 52L33 60L21 58C23.0164 72.7807 36.839 68.3413 42 58L33 63L44 52L27 52z"/>
<path style="fill:#170f0c; stroke:none;" d="M50 54L50 56L64 54L64 52L50 54z"/>
<path style="fill:#e9ab46; stroke:none;" d="M65 52L71 56L71 58L56 61L56 62L60 62C61.7333 72.3474 80.3925 57.2879 83 52L65 52z"/>
<path style="fill:#af572f; stroke:none;" d="M89 52L81 58L90 58L89 52M10 54L11 55L10 54z"/>
<path style="fill:#170f0c; stroke:none;" d="M65 54L65 56L67 56L67 54L65 54z"/>
<path style="fill:#af572f; stroke:none;" d="M37 56L37 60L38 60L37 56z"/>
<path style="fill:#170f0c; stroke:none;" d="M67 56L67 58L71 58L71 56L67 56z"/>
<path style="fill:#af572f; stroke:none;" d="M35 58L33 61L35 61L35 62L33 62L33 63L35 58z"/>
<path style="fill:#170f0c; stroke:none;" d="M36.3333 58.6667L36.6667 59.3333L36.3333 58.6667M56 58L56 60L67 60L67 58L56 58M71 58L71 60L73 60L73 58L71 58z"/>
<path style="fill:#af572f; stroke:none;" d="M8 60L9 61L8 60M10 60L11 61L10 60z"/>
<path style="fill:#e9ab46; stroke:none;" d="M11 60L10 64L11 60z"/>
<path style="fill:#af572f; stroke:none;" d="M12 60L10 64L10 65C13.0124 64.3545 13.498 62.6128 12 60M15 60L12 75L13 75L13 67L23 67L19 60L15 60z"/>
<path style="fill:#170f0c; stroke:none;" d="M54 60L54 63L56 63L56 60L54 60z"/>
<path style="fill:#af572f; stroke:none;" d="M71 60L72 61L71 60M73 60L73 61L77 61L77 63L69 65L69 67L85 67L85 65L79 60L73 60M81 60L82 61L81 60z"/>
<path style="fill:#e9ab46; stroke:none;" d="M81 61L81 62L89 67C93.9435 59.8878 86.7266 59.3079 81 61z"/>
<path style="fill:#af572f; stroke:none;" d="M91 60L92 61L91 60M93 60L94 61L93 60z"/>
<path style="fill:#170f0c; stroke:none;" d="M33.6667 61.3333L34.3333 61.6667L33.6667 61.3333M40 61L40 63L42 61L40 61z"/>
<path style="fill:#af572f; stroke:none;" d="M21.6667 62.3333L22.3333 62.6667L21.6667 62.3333M69 62L69 63L73 63L69 62M81 62L81 63L85 63L81 62z"/>
<path style="fill:#170f0c; stroke:none;" d="M38 63L38 65L40 63L38 63z"/>
<path style="fill:#af572f; stroke:none;" d="M68 64L69 65L68 64M85 64L86 65L85 64M91 64L92 65L91 64M93 64L94 65L93 64M35 65L36 66L35 65M87.3333 65.6667L87.6667 66.3333L87.3333 65.6667M8 66L9 67L8 66M60 66L61 67L60 66M64 66L65 67L64 66M89 66L90 67L89 66M91 66L92 67L91 66z"/>
<path style="fill:#e9ab46; stroke:none;" d="M13 69L15 73L14 77L15 77L31 75L69 75L85 77L86 77L85 73L87 69L13 69z"/>
<path style="fill:#af572f; stroke:none;" d="M87 69L87 75L88 75L87 69z"/>
<path style="fill:#e9ab46; stroke:none;" d="M10.3333 73.6667L10.6667 74.3333L10.3333 73.6667z"/>
<path style="fill:#cbdae0; stroke:none;" d="M11 73L2 77L2 79L98 79L98 77L89 73L88 73C83.5336 78.7099 75.5695 77 69 77L32 77C24.1645 77 17.3751 78.0925 11 73z"/>
<path style="fill:#170f0c; stroke:none;" d="M13 73L13 75L15 75L15 73L13 73M85 73L85 75L87 75L87 73L85 73z"/>
<path style="fill:#e9ab46; stroke:none;" d="M89.3333 73.6667L89.6667 74.3333L89.3333 73.6667z"/>
<path style="fill:#170f0c; stroke:none;" d="M15 75L15 77L85 77L85 75L15 75z"/>
<path style="fill:#f293ec; stroke:none;" d="M0 81L0 100L100 100L100 81L0 81z"/>
</svg>
