<?xml version="1.0" standalone="yes"?>
<svg xmlns="http://www.w3.org/2000/svg" width="100" height="100">
<path style="fill:#cbc9cb; stroke:none;" d="M0 0L0 100L100 100L100 0L0 0z"/>
<path style="fill:#927374; stroke:none;" d="M27 23L27 24L35 24L27 23M38 28L39 28L39 24L42 24L42 28C43.575 23.2016 38.8305 23.0174 38 28M54 23L54 24L58 24L54 23M58 31L58 32C62.046 30.6571 61.9534 27.9346 62 24L65 27C66.8338 18.9253 58.9294 30.3982 58 31z"/>
<path style="fill:#2d242f; stroke:none;" d="M27 24C24.8111 28.0091 20.3533 32.7937 27 35L27 73L31 73L31 77L69 77L69 73L73 73L73 43L69 43L69 73L31 73L31 35L27 35L27 27L35 27L35 31L38 31L38 27L35 24L27 24M39 24L39 27L42 27L42 24L39 24M54 24L54 27L43 27L43 31L54 31L54 27L58 27L58 31L61 31L61 27L58 24L54 24M62 24L62 27L65 27L65 24L62 24z"/>
<path style="fill:#927374; stroke:none;" d="M23 27L24 28L23 27M27 27L27 28L31 28L27 27z"/>
<path style="fill:#d5a93e; stroke:none;" d="M27 28L27 35L31 35L31 46L35 46L35 50L65 50L65 46L69 46L69 42L73 42L73 31L69 31L69 35L65 35L65 27L62 27L58 32L54 27L53 32C48.3386 30.9252 43.6443 32.2956 42 27L39 27L39 31L35 31C33.6063 26.8419 30.8841 27.5534 27 28z"/>
<path style="fill:#927374; stroke:none;" d="M34 27L35 28L34 27M57 27L58 28L57 27z"/>
<path style="fill:#ab492f; stroke:none;" d="M65 27L66 28L65 27z"/>
<path style="fill:#2d242f; stroke:none;" d="M65 35L69 35L69 31L73 31L73 27C66.699 27.0747 65.0747 28.699 65 35z"/>
<path style="fill:#ab492f; stroke:none;" d="M38 28L38 31L39 31L38 28M42 28L42 31L43 31L42 28z"/>
<path style="fill:#927374; stroke:none;" d="M27.3333 29.6667L27.6667 30.3333L27.3333 29.6667M43 31L43 32L46 32L43 31M51.6667 31.3333L52.3333 31.6667L51.6667 31.3333z"/>
<path style="fill:#2d242f; stroke:none;" d="M73 31L73 42L77 42L77 31L73 31z"/>
<path style="fill:#927374; stroke:none;" d="M23 34L24 35L23 34M69 42L69 43L77 43L69 42z"/>
<path style="fill:#ab492f; stroke:none;" d="M31 46L31 73L69 73L69 46L65 46L65 50L35 50L35 46L31 46z"/>
<path style="fill:#cbc9cb; stroke:none;" d="M35 58L35 69L38 69L38 58L35 58z"/>
<path style="fill:#d5a93e; stroke:none;" d="M38 58L38 69L39 69L38 58z"/>
<path style="fill:#927374; stroke:none;" d="M35 69L35 70L38 70L35 69z"/>
</svg>
