<?xml version="1.0" standalone="yes"?>
<svg xmlns="http://www.w3.org/2000/svg" width="100" height="100">
<path style="fill:#6fffe9; stroke:none;" d="M0 0L0 100L100 100L100 0L0 0z"/>
<path style="fill:#211002; stroke:none;" d="M42 20L42 22L58 22L58 20L42 20z"/>
<path style="fill:#ba906b; stroke:none;" d="M37 22L37 23L42 23L37 22z"/>
<path style="fill:#59524a; stroke:none;" d="M42 22L42 23L58 23L42 22z"/>
<path style="fill:#ba906b; stroke:none;" d="M58 22L58 23L63 23L58 22z"/>
<path style="fill:#211002; stroke:none;" d="M35 28L37 25L42 25L42 23C38.0983 23.2746 36.0974 24.1172 35 28z"/>
<path style="fill:#ccf0fd; stroke:none;" d="M37 25L34 28L34 59L37 62L63 62L66 59L66 28L63 25L37 25z"/>
<path style="fill:#211002; stroke:none;" d="M58 23L58 25L63 25L63 23L58 23z"/>
<path style="fill:#59524a; stroke:none;" d="M34 25L34 28L35 28L34 25z"/>
<path style="fill:#211002; stroke:none;" d="M63 25L63 28L65 28L65 25L63 25z"/>
<path style="fill:#59524a; stroke:none;" d="M65 25L65 28L66 28L65 25z"/>
<path style="fill:#211002; stroke:none;" d="M32 28L32 64L34 64L34 28L32 28M66 28L66 64L68 64L68 28L66 28z"/>
<path style="fill:#ba906b; stroke:none;" d="M34 59L34 64L35 64L34 59z"/>
<path style="fill:#6fffe9; stroke:none;" d="M35 59L37 67L63 67L65 59L63 62C53.1478 62 43.6026 63.1989 35 59z"/>
<path style="fill:#ba906b; stroke:none;" d="M65 59L65 64L66 64L65 59z"/>
<path style="fill:#ccf0fd; stroke:none;" d="M32.6667 64.3333L33.3333 64.6667L32.6667 64.3333z"/>
<path style="fill:#59524a; stroke:none;" d="M34 67L35 67L37 65C34.8603 63.8822 34.4732 64.7492 34 67M63 64L63 65L65 67L66 67L63 64z"/>
<path style="fill:#ccf0fd; stroke:none;" d="M66.6667 64.3333L67.3333 64.6667L66.6667 64.3333z"/>
<path style="fill:#211002; stroke:none;" d="M35 65L35 67L37 67L37 65L35 65M63 65L63 67L65 67L65 65L63 65M37 67L37 69L42 69L42 77L45 77L45 67L37 67z"/>
<path style="fill:#ba906b; stroke:none;" d="M45 67C44.9969 70.9871 45.5976 74.6677 42 77L42 78L55 78L55 77L53 67L45 67z"/>
<path style="fill:#211002; stroke:none;" d="M53 67L53 77L55 77L55 69L63 69L63 67L53 67z"/>
<path style="fill:#59524a; stroke:none;" d="M37 69L37 70L42 70L37 69M55 69L55 70L63 70L55 69M45 77L45 78L52 80C53.4584 76.1313 47.5721 77.0017 45 77z"/>
<path style="fill:#211002; stroke:none;" d="M45 78L45 80L52 80L52 78L45 78z"/>
</svg>
