<?xml version="1.0" standalone="yes"?>
<svg xmlns="http://www.w3.org/2000/svg" width="100" height="100">
<path style="fill:#feef89; stroke:none;" d="M0 0L0 100L100 100L100 0L0 0z"/>
<path style="fill:#424339; stroke:none;" d="M48 14C47.9987 25.346 41.512 24.2476 37 33L38 33L48 26L45 38L45 39L60 37L62 41L37 41L41 35L43 38L44 38L42 33L41 33L36 41L35 41L37 34L36 34C32.741 41.4224 30.3175 43.7736 32 52L37 53L38 53L47 51L68 52C69.6825 43.7736 67.259 41.4224 64 34L63 34L65 41C60.7121 37.4971 57.6667 34.4434 52 37L52 26L62 33L63 33C58.488 24.2476 52.0013 25.346 52 14L48 14z"/>
<path style="fill:#73ae39; stroke:none;" d="M49 15L49 25L51 25L51 15L49 15z"/>
<path style="fill:#7ebec1; stroke:none;" d="M35 41L36 41L42 33L47 38L48 26C40.6566 28.3464 36.7594 33.6611 35 41z"/>
<path style="fill:#73ae39; stroke:none;" d="M49 26L49 38L51 38L51 26L49 26z"/>
<path style="fill:#7ebec1; stroke:none;" d="M52 26L52 37C58.0268 35.5803 60.2173 38.0613 65 41C63.2406 33.6611 59.3434 28.3464 52 26z"/>
<path style="fill:#73ae39; stroke:none;" d="M43 27L44 28L43 27M56 27L57 28L56 27M40 28L41 29L40 28M59 28L60 29L59 28M39 29L40 30L39 29M60 29L61 30L60 29M38.3333 31.6667L38.6667 32.3333L38.3333 31.6667M61.3333 31.6667L61.6667 32.3333L61.3333 31.6667M36.6667 33.3333L37.3333 33.6667L36.6667 33.3333M62.6667 33.3333L63.3333 33.6667L62.6667 33.3333M40 34L41 35L40 34M39 35L40 36L39 35z"/>
<path style="fill:#feef89; stroke:none;" d="M41 35L38 41C43.146 40.5168 58.6164 43.457 60 37L58 39L57 39L41 35z"/>
<path style="fill:#7ebec1; stroke:none;" d="M34.3333 36.6667L34.6667 37.3333L34.3333 36.6667z"/>
<path style="fill:#dc7343; stroke:none;" d="M54.6667 36.3333L55.3333 36.6667L54.6667 36.3333z"/>
<path style="fill:#73ae39; stroke:none;" d="M60 36L61 37L60 36z"/>
<path style="fill:#7ebec1; stroke:none;" d="M65.3333 36.6667L65.6667 37.3333L65.3333 36.6667z"/>
<path style="fill:#73ae39; stroke:none;" d="M44 37L45 40L44 37z"/>
<path style="fill:#dc7343; stroke:none;" d="M53 37L54 38L53 37M56 37L57 38L56 37M58 37L59 38L58 37z"/>
<path style="fill:#73ae39; stroke:none;" d="M33.3333 38.6667L33.6667 39.3333L33.3333 38.6667M35 38L36 39L35 38M38 38L38 40L40 38L38 38M47.6667 38.3333L48.3333 38.6667L47.6667 38.3333M51 38L52 39L51 38z"/>
<path style="fill:#dc7343; stroke:none;" d="M52 38L53 39L52 38M57 38L58 39L57 38z"/>
<path style="fill:#73ae39; stroke:none;" d="M64 38L65 39L64 38M66.3333 38.6667L66.6667 39.3333L66.3333 38.6667M36 39L37 40L36 39z"/>
<path style="fill:#dc7343; stroke:none;" d="M45 39L46 40L45 39z"/>
<path style="fill:#73ae39; stroke:none;" d="M46 39L47 40L46 39M49 39L50 40L49 39z"/>
<path style="fill:#dc7343; stroke:none;" d="M50 39L51 40L50 39M56 40L56 41L62 41L56 40z"/>
<path style="fill:#73ae39; stroke:none;" d="M62 39L63 40L62 39z"/>
<path style="fill:#dc7343; stroke:none;" d="M37 40L38 41L37 40M40 40L41 41L40 40M51 40L52 41L51 40M53 40L54 41L53 40z"/>
<path style="fill:#73ae39; stroke:none;" d="M55 40L56 41L55 40z"/>
<path style="fill:#dc7343; stroke:none;" d="M31 47L69 47C67.6251 38.7612 32.3749 38.7612 31 47M34 48L34 49L37 52L41 49L46 53L47 49C52.5058 51.7387 61.1006 52.5083 66 49L34 48M33 51L33 52L36 52L33 51M39 51L38 53L39 51z"/>
<path style="fill:#feef89; stroke:none;" d="M40 51L35 52L42 63L43 63L47 54L48 54L52 58C53.1671 50.7349 56.8298 54.7766 57 60C65.753 53.2367 51.1273 51.441 47 51L45 55L44 55L40 51z"/>
<path style="fill:#dc7343; stroke:none;" d="M64 51L64 52L67 52L64 51z"/>
<path style="fill:#73ae39; stroke:none;" d="M33 52L33 57L34 57L33 52z"/>
<path style="fill:#424339; stroke:none;" d="M34 52C34.5374 64.4848 34.7929 86 50 86C52.8839 86 56.8258 86.6192 59.1011 84.436C64.876 78.8946 65.6694 59.6805 66 52L65 52L64 58C60.6288 56.7867 59.6171 57.4697 59 61L58 61C56.8325 56.1715 52.7615 48.2201 52 58L48 54L47 54L45 62L46 62L47 56C50.7756 59.4573 52.6386 57.6416 53 53L56 54L57 62L61 57C66.0921 64.9528 59.6931 76.2169 59 85L41 85L35 56L39 58L34 52z"/>
<path style="fill:#feef89; stroke:none;" d="M63 52L63 58L65 52L63 52z"/>
<path style="fill:#73ae39; stroke:none;" d="M66 52L66 57L67 57L66 52M53 53C52.3237 57.2074 50.7159 58.3517 47 56L46 62L45 62L45 57L44 57L43 64L42 64L42 61L40 58L35 56L41 85L59 85C59.9635 77.3829 67.0156 63.065 61 57L57 62L55 53L53 53M44 54L45 55L44 54z"/>
<path style="fill:#dc7343; stroke:none;" d="M59 54L60 55L59 54z"/>
<path style="fill:#73ae39; stroke:none;" d="M60 54L60 57L62 54L60 54M37 55L38 56L37 55M46 55L47 56L46 55M48 55L49 56L48 55M38 56L39 57L38 56M45 56L46 57L45 56M49.3333 56.6667L49.6667 57.3333L49.3333 56.6667z"/>
<path style="fill:#dc7343; stroke:none;" d="M64 56L65 57L64 56z"/>
<path style="fill:#7ebec1; stroke:none;" d="M34 57L34 61L35 61L34 57z"/>
<path style="fill:#dc7343; stroke:none;" d="M39 57L40 58L39 57z"/>
<path style="fill:#7ebec1; stroke:none;" d="M65 57L65 61L66 61L65 57z"/>
<path style="fill:#424339; stroke:none;" d="M40 58L40 62L41 62L40 58z"/>
<path style="fill:#73ae39; stroke:none;" d="M58 60L59 61L58 60z"/>
<path style="fill:#424339; stroke:none;" d="M41 62L42 63L41 62M43 62L44 63L43 62M42 63L43 64L42 63z"/>
<path style="fill:#73ae39; stroke:none;" d="M39 81L39 85L40 85L39 81M60 81L60 85L61 85L60 81z"/>
</svg>
