<?xml version="1.0" encoding="UTF-8"?>
<!DOCTYPE svg PUBLIC "-//W3C//DTD SVG 1.1//EN" "http://www.w3.org/Graphics/SVG/1.1/DTD/svg11.dtd">
<svg xmlns="http://www.w3.org/2000/svg" version="1.1" width="100px" height="100px" style="shape-rendering:geometricPrecision; text-rendering:geometricPrecision; image-rendering:optimizeQuality; fill-rule:evenodd; clip-rule:evenodd" xmlns:xlink="http://www.w3.org/1999/xlink">
<g><path style="opacity:1" fill="#e1a0b2" d="M -0.5,-0.5 C 32.8333,-0.5 66.1667,-0.5 99.5,-0.5C 99.5,32.8333 99.5,66.1667 99.5,99.5C 66.1667,99.5 32.8333,99.5 -0.5,99.5C -0.5,66.1667 -0.5,32.8333 -0.5,-0.5 Z"/></g>
<g><path style="opacity:1" fill="#dda114" d="M 46.5,12.5 C 46.5,12.1667 46.5,11.8333 46.5,11.5C 50.3293,10.931 53.6627,11.5977 56.5,13.5C 62.6612,14.2718 68.6612,15.9384 74.5,18.5C 74.5,19.8333 74.5,21.1667 74.5,22.5C 79.8587,24.0223 82.8587,27.5223 83.5,33C 83.0027,36.2413 82.336,39.4079 81.5,42.5C 81.8432,44.4832 81.1765,45.8166 79.5,46.5C 79.5772,43.9876 78.5772,41.9876 76.5,40.5C 75.8281,41.9492 75.1614,43.2825 74.5,44.5C 74.7989,42.396 74.4656,40.396 73.5,38.5C 71.5106,37.3681 69.8439,36.0348 68.5,34.5C 71.4442,35.5884 74.4442,35.5884 77.5,34.5C 77.5,32.5 77.5,30.5 77.5,28.5C 76.325,28.719 75.325,28.3857 74.5,27.5C 73.0758,25.7087 71.7424,23.8754 70.5,22C 64.5727,20.1809 58.5727,18.3476 52.5,16.5C 51.0071,14.3295 49.0071,12.9962 46.5,12.5 Z"/></g>
<g><path style="opacity:1" fill="#e2a90a" d="M 42.5,30.5 C 43.1667,30.5 43.8333,30.5 44.5,30.5C 44.1734,35.2137 44.5067,39.8804 45.5,44.5C 47.1319,47.1455 49.4652,48.4789 52.5,48.5C 54.2821,49.7196 56.2821,50.3862 58.5,50.5C 60.6353,52.369 63.3019,53.0356 66.5,52.5C 65.1561,54.0348 63.4894,55.3681 61.5,56.5C 61.1667,57.5 60.8333,58.5 60.5,59.5C 61.6805,63.8911 63.0139,68.2245 64.5,72.5C 63.8999,74.4677 62.5666,75.4677 60.5,75.5C 60.5,75.1667 60.5,74.8333 60.5,74.5C 57.9532,68.7256 55.9532,62.7256 54.5,56.5C 48.0944,53.1288 42.4277,48.4621 37.5,42.5C 36.5896,49.2071 35.5896,55.8738 34.5,62.5C 32.9891,63.5025 31.3224,64.1692 29.5,64.5C 29.8541,67.4206 28.8541,69.7539 26.5,71.5C 28.0192,73.4237 29.3525,75.4237 30.5,77.5C 30.1667,77.5 29.8333,77.5 29.5,77.5C 28.7777,78.5511 27.7777,79.2178 26.5,79.5C 25.8166,81.1765 24.4832,81.8432 22.5,81.5C 22.5,82.8333 22.5,84.1667 22.5,85.5C 19.5,85.5 16.5,85.5 13.5,85.5C 13.5,81.5 13.5,77.5 13.5,73.5C 13.5,73.1667 13.5,72.8333 13.5,72.5C 15.1765,71.8166 15.8432,70.4832 15.5,68.5C 19.226,68.8226 22.8927,68.4892 26.5,67.5C 28.1035,64.8752 27.7702,63.8752 25.5,64.5C 26.7196,62.7179 27.3862,60.7179 27.5,58.5C 27.8333,58.5 28.1667,58.5 28.5,58.5C 28.2864,62.2571 29.2864,62.9238 31.5,60.5C 32.983,54.3761 32.6497,48.3761 30.5,42.5C 30.9186,41.3279 31.5853,40.3279 32.5,39.5C 35.1667,38.8333 37.8333,38.1667 40.5,37.5C 42.1733,35.4775 42.8399,33.1441 42.5,30.5 Z"/></g>
<g><path style="opacity:1" fill="#1d140e" d="M 85.5,42.5 C 86.4112,39.0863 87.0779,35.5863 87.5,32C 87.7593,28.0914 86.4259,24.9247 83.5,22.5C 78.1667,19.8333 72.8333,17.1667 67.5,14.5C 63.8927,13.5108 60.226,13.1774 56.5,13.5C 53.6627,11.5977 50.3293,10.931 46.5,11.5C 42.4804,9.35948 37.9804,8.02614 33,7.5C 29.4143,7.32493 26.5809,8.65827 24.5,11.5C 21.0317,21.3302 24.3651,25.6635 34.5,24.5C 42.2808,27.4704 50.2808,30.4704 58.5,33.5C 61.7683,34.487 65.1016,34.8204 68.5,34.5C 69.8439,36.0348 71.5106,37.3681 73.5,38.5C 74.4656,40.396 74.7989,42.396 74.5,44.5C 72.2469,45.7433 70.2469,47.41 68.5,49.5C 65.2317,50.487 61.8984,50.8204 58.5,50.5C 56.2821,50.3862 54.2821,49.7196 52.5,48.5C 51.1932,45.8864 49.8599,43.2198 48.5,40.5C 48.7472,39.2867 49.4138,38.62 50.5,38.5C 50.5,36.5 50.5,34.5 50.5,32.5C 48.2821,32.3862 46.2821,31.7196 44.5,30.5C 43.8333,30.5 43.1667,30.5 42.5,30.5C 39.821,30.5246 38.4877,31.858 38.5,34.5C 37.1667,34.5 35.8333,34.5 34.5,34.5C 36.254,32.4113 37.5873,30.078 38.5,27.5C 36.2646,27.7947 34.2646,27.4614 32.5,26.5C 30.3926,25.5318 28.0593,25.1984 25.5,25.5C 25.1984,28.0593 25.5318,30.3926 26.5,32.5C 28.4559,34.1484 30.7892,34.8151 33.5,34.5C 31.3926,35.4682 29.0593,35.8016 26.5,35.5C 26.1788,33.9519 25.1788,33.2852 23.5,33.5C 23.0485,37.104 24.0485,40.104 26.5,42.5C 27.4345,43.5676 27.7678,44.901 27.5,46.5C 26.0359,44.3703 24.0359,43.037 21.5,42.5C 21.9746,45.0821 21.3079,47.0821 19.5,48.5C 19.5,45.8333 19.5,43.1667 19.5,40.5C 20.5,40.5 21.5,40.5 22.5,40.5C 22.6009,36.2578 23.2676,32.0911 24.5,28C 22.6024,21.8964 22.2691,15.7297 23.5,9.5C 24.5,8.5 25.5,7.5 26.5,6.5C 31.1667,5.16667 35.8333,5.16667 40.5,6.5C 49.7772,8.75547 59.1106,10.7555 68.5,12.5C 72.7686,14.473 77.102,16.1397 81.5,17.5C 81.5,18.5 81.5,19.5 81.5,20.5C 84.2853,20.933 86.6187,22.2663 88.5,24.5C 89.8333,29.8333 89.8333,35.1667 88.5,40.5C 87.7348,41.6119 86.7348,42.2786 85.5,42.5 Z"/></g>
<g><path style="opacity:1" fill="#f6ed0e" d="M 44.5,30.5 C 46.2821,31.7196 48.2821,32.3862 50.5,32.5C 50.5,34.5 50.5,36.5 50.5,38.5C 49.4138,38.62 48.7472,39.2867 48.5,40.5C 49.8599,43.2198 51.1932,45.8864 52.5,48.5C 49.4652,48.4789 47.1319,47.1455 45.5,44.5C 44.5067,39.8804 44.1734,35.2137 44.5,30.5 Z"/></g>
<g><path style="opacity:1" fill="#cb1110" d="M 32.5,26.5 C 34.2646,27.4614 36.2646,27.7947 38.5,27.5C 37.5873,30.078 36.254,32.4113 34.5,34.5C 34.1667,34.5 33.8333,34.5 33.5,34.5C 30.7892,34.8151 28.4559,34.1484 26.5,32.5C 26.5,30.5 26.5,28.5 26.5,26.5C 28.5,26.5 30.5,26.5 32.5,26.5 Z"/></g>
<g><path style="opacity:1" fill="#6d0909" d="M 32.5,26.5 C 30.5,26.5 28.5,26.5 26.5,26.5C 26.5,28.5 26.5,30.5 26.5,32.5C 25.5318,30.3926 25.1984,28.0593 25.5,25.5C 28.0593,25.1984 30.3926,25.5318 32.5,26.5 Z"/></g>
<g><path style="opacity:1" fill="#c58613" d="M 56.5,13.5 C 60.226,13.1774 63.8927,13.5108 67.5,14.5C 72.8333,17.1667 78.1667,19.8333 83.5,22.5C 86.4259,24.9247 87.7593,28.0914 87.5,32C 87.0779,35.5863 86.4112,39.0863 85.5,42.5C 85.1667,42.5 84.8333,42.5 84.5,42.5C 83.5,42.5 82.5,42.5 81.5,42.5C 82.336,39.4079 83.0027,36.2413 83.5,33C 82.8587,27.5223 79.8587,24.0223 74.5,22.5C 74.5,21.1667 74.5,19.8333 74.5,18.5C 68.6612,15.9384 62.6612,14.2718 56.5,13.5 Z"/></g>
<g><path style="opacity:1" fill="#f6b31b" d="M 46.5,12.5 C 49.0071,12.9962 51.0071,14.3295 52.5,16.5C 58.5727,18.3476 64.5727,20.1809 70.5,22C 71.7424,23.8754 73.0758,25.7087 74.5,27.5C 75.325,28.3857 76.325,28.719 77.5,28.5C 77.5,30.5 77.5,32.5 77.5,34.5C 74.4442,35.5884 71.4442,35.5884 68.5,34.5C 65.1016,34.8204 61.7683,34.487 58.5,33.5C 50.2808,30.4704 42.2808,27.4704 34.5,24.5C 32.7354,23.5386 30.7354,23.2053 28.5,23.5C 28.5271,21.8007 29.1938,20.4674 30.5,19.5C 31.7196,17.7179 32.3862,15.7179 32.5,13.5C 37.0275,14.9372 41.6942,15.6039 46.5,15.5C 46.5,14.5 46.5,13.5 46.5,12.5 Z"/></g>
<g><path style="opacity:1" fill="#fdf7ec" d="M 46.5,11.5 C 46.5,11.8333 46.5,12.1667 46.5,12.5C 46.5,13.5 46.5,14.5 46.5,15.5C 41.6942,15.6039 37.0275,14.9372 32.5,13.5C 32.3862,15.7179 31.7196,17.7179 30.5,19.5C 29.4138,19.38 28.7472,18.7133 28.5,17.5C 29.7545,15.6663 30.4211,13.6663 30.5,11.5C 35.8333,11.5 41.1667,11.5 46.5,11.5 Z"/></g>
<g><path style="opacity:1" fill="#cc961d" d="M 46.5,11.5 C 41.1667,11.5 35.8333,11.5 30.5,11.5C 30.4211,13.6663 29.7545,15.6663 28.5,17.5C 28.7472,18.7133 29.4138,19.38 30.5,19.5C 29.1938,20.4674 28.5271,21.8007 28.5,23.5C 30.7354,23.2053 32.7354,23.5386 34.5,24.5C 24.3651,25.6635 21.0317,21.3302 24.5,11.5C 26.5809,8.65827 29.4143,7.32493 33,7.5C 37.9804,8.02614 42.4804,9.35948 46.5,11.5 Z"/></g>
<g><path style="opacity:1" fill="#dd1111" d="M 50.5,38.5 C 52.1765,37.8166 52.8432,36.4832 52.5,34.5C 57.1016,35.6209 61.7682,36.6209 66.5,37.5C 68.8442,38.3372 70.8442,39.6706 72.5,41.5C 69.8225,45.5326 66.1559,47.8659 61.5,48.5C 55.6356,47.6377 51.969,44.3043 50.5,38.5 Z"/></g>
<g><path style="opacity:1" fill="#4d4504" d="M 33.5,34.5 C 33.8333,34.5 34.1667,34.5 34.5,34.5C 33.0821,36.3079 31.0821,36.9746 28.5,36.5C 27.5084,36.6716 26.8417,36.3382 26.5,35.5C 29.0593,35.8016 31.3926,35.4682 33.5,34.5 Z"/></g>
<g><path style="opacity:1" fill="#c2940a" d="M 26.5,35.5 C 26.8417,36.3382 27.5084,36.6716 28.5,36.5C 28.5394,37.5832 28.8728,38.5832 29.5,39.5C 28.0065,40.1411 27.0065,41.1411 26.5,42.5C 24.0485,40.104 23.0485,37.104 23.5,33.5C 25.1788,33.2852 26.1788,33.9519 26.5,35.5 Z"/></g>
<g><path style="opacity:1" fill="#e0c70c" d="M 79.5,46.5 C 78.5423,49.1247 77.3757,49.1247 76,46.5C 73.5518,49.6406 70.3851,51.6406 66.5,52.5C 63.3019,53.0356 60.6353,52.369 58.5,50.5C 61.8984,50.8204 65.2317,50.487 68.5,49.5C 70.2469,47.41 72.2469,45.7433 74.5,44.5C 75.1614,43.2825 75.8281,41.9492 76.5,40.5C 78.5772,41.9876 79.5772,43.9876 79.5,46.5 Z"/></g>
<g><path style="opacity:1" fill="#ca1010" d="M 27.5,46.5 C 27.8333,46.5 28.1667,46.5 28.5,46.5C 28.5,50.5 28.5,54.5 28.5,58.5C 28.1667,58.5 27.8333,58.5 27.5,58.5C 24.9905,61.118 21.9905,63.118 18.5,64.5C 17.5344,62.604 17.2011,60.604 17.5,58.5C 19.4023,55.6627 20.069,52.3293 19.5,48.5C 21.3079,47.0821 21.9746,45.0821 21.5,42.5C 24.0359,43.037 26.0359,44.3703 27.5,46.5 Z"/></g>
<g><path style="opacity:1" fill="#f7eb0e" d="M 54.5,56.5 C 49.1254,56.1718 43.7921,56.5052 38.5,57.5C 36.9951,58.8415 36.3285,60.5082 36.5,62.5C 35.8333,62.5 35.1667,62.5 34.5,62.5C 35.5896,55.8738 36.5896,49.2071 37.5,42.5C 42.4277,48.4621 48.0944,53.1288 54.5,56.5 Z"/></g>
<g><path style="opacity:1" fill="#1a150b" d="M 81.5,42.5 C 82.5,42.5 83.5,42.5 84.5,42.5C 83.8505,44.4352 83.5172,46.4352 83.5,48.5C 75.5329,50.3169 68.5329,53.9836 62.5,59.5C 64.9261,64.873 66.2594,70.5397 66.5,76.5C 64.2646,76.7947 62.2646,76.4614 60.5,75.5C 62.5666,75.4677 63.8999,74.4677 64.5,72.5C 63.0139,68.2245 61.6805,63.8911 60.5,59.5C 60.8333,58.5 61.1667,57.5 61.5,56.5C 63.4894,55.3681 65.1561,54.0348 66.5,52.5C 70.3851,51.6406 73.5518,49.6406 76,46.5C 77.3757,49.1247 78.5423,49.1247 79.5,46.5C 81.1765,45.8166 81.8432,44.4832 81.5,42.5 Z"/></g>
<g><path style="opacity:1" fill="#4f4b0e" d="M 28.5,46.5 C 29.7943,48.0478 30.4609,50.0478 30.5,52.5C 30.4609,54.9522 29.7943,56.9522 28.5,58.5C 28.5,54.5 28.5,50.5 28.5,46.5 Z"/></g>
<g><path style="opacity:1" fill="#f2d40a" d="M 42.5,30.5 C 42.8399,33.1441 42.1733,35.4775 40.5,37.5C 37.8333,38.1667 35.1667,38.8333 32.5,39.5C 31.5853,40.3279 30.9186,41.3279 30.5,42.5C 32.6497,48.3761 32.983,54.3761 31.5,60.5C 29.2864,62.9238 28.2864,62.2571 28.5,58.5C 29.7943,56.9522 30.4609,54.9522 30.5,52.5C 30.4609,50.0478 29.7943,48.0478 28.5,46.5C 28.1667,46.5 27.8333,46.5 27.5,46.5C 27.7678,44.901 27.4345,43.5676 26.5,42.5C 27.0065,41.1411 28.0065,40.1411 29.5,39.5C 28.8728,38.5832 28.5394,37.5832 28.5,36.5C 31.0821,36.9746 33.0821,36.3079 34.5,34.5C 35.8333,34.5 37.1667,34.5 38.5,34.5C 38.4877,31.858 39.821,30.5246 42.5,30.5 Z"/></g>
<g><path style="opacity:1" fill="#221110" d="M 17.5,58.5 C 17.2011,60.604 17.5344,62.604 18.5,64.5C 21.9905,63.118 24.9905,61.118 27.5,58.5C 27.3862,60.7179 26.7196,62.7179 25.5,64.5C 22.2655,65.576 18.9322,66.2427 15.5,66.5C 14.9644,63.3019 15.631,60.6353 17.5,58.5 Z"/></g>
<g><path style="opacity:1" fill="#d81111" d="M 38.5,72.5 C 37.1667,72.5 35.8333,72.5 34.5,72.5C 35.576,69.2655 36.2427,65.9322 36.5,62.5C 38.0783,61.9344 39.4116,60.9344 40.5,59.5C 44.5,58.1667 48.5,58.1667 52.5,59.5C 53.1667,60.1667 53.8333,60.8333 54.5,61.5C 49.7271,63.8864 45.0604,66.2198 40.5,68.5C 40.4729,70.1993 39.8062,71.5326 38.5,72.5 Z"/></g>
<g><path style="opacity:1" fill="#e1d90e" d="M 15.5,68.5 C 15.5,67.8333 15.5,67.1667 15.5,66.5C 18.9322,66.2427 22.2655,65.576 25.5,64.5C 27.7702,63.8752 28.1035,64.8752 26.5,67.5C 22.8927,68.4892 19.226,68.8226 15.5,68.5 Z"/></g>
<g><path style="opacity:1" fill="#25110d" d="M 34.5,62.5 C 35.1667,62.5 35.8333,62.5 36.5,62.5C 36.2427,65.9322 35.576,69.2655 34.5,72.5C 35.8333,72.5 37.1667,72.5 38.5,72.5C 38.5,74.5 38.5,76.5 38.5,78.5C 36.9519,78.1788 36.2852,77.1788 36.5,75.5C 35.791,74.596 34.791,74.2627 33.5,74.5C 33.8404,76.5476 33.5071,77.5476 32.5,77.5C 32.5225,72.3939 33.1892,67.3939 34.5,62.5 Z"/></g>
<g><path style="opacity:1" fill="#272424" d="M 15.5,66.5 C 15.5,67.1667 15.5,67.8333 15.5,68.5C 15.8432,70.4832 15.1765,71.8166 13.5,72.5C 13.0254,69.9179 13.6921,67.9179 15.5,66.5 Z"/></g>
<g><path style="opacity:1" fill="#1c1108" d="M 54.5,56.5 C 55.9532,62.7256 57.9532,68.7256 60.5,74.5C 59.1667,74.5 57.8333,74.5 56.5,74.5C 56.5173,70.8832 55.5173,67.5499 53.5,64.5C 49.185,68.4888 44.185,71.1555 38.5,72.5C 39.8062,71.5326 40.4729,70.1993 40.5,68.5C 45.0604,66.2198 49.7271,63.8864 54.5,61.5C 53.8333,60.8333 53.1667,60.1667 52.5,59.5C 48.5,58.1667 44.5,58.1667 40.5,59.5C 39.4116,60.9344 38.0783,61.9344 36.5,62.5C 36.3285,60.5082 36.9951,58.8415 38.5,57.5C 43.7921,56.5052 49.1254,56.1718 54.5,56.5 Z"/></g>
<g><path style="opacity:1" fill="#e6d00c" d="M 34.5,62.5 C 33.1892,67.3939 32.5225,72.3939 32.5,77.5C 31.8333,77.5 31.1667,77.5 30.5,77.5C 29.3525,75.4237 28.0192,73.4237 26.5,71.5C 28.8541,69.7539 29.8541,67.4206 29.5,64.5C 31.3224,64.1692 32.9891,63.5025 34.5,62.5 Z"/></g>
<g><path style="opacity:1" fill="#060404" d="M 13.5,73.5 C 13.5,77.5 13.5,81.5 13.5,85.5C 16.5,85.5 19.5,85.5 22.5,85.5C 22.5,84.1667 22.5,82.8333 22.5,81.5C 24.4832,81.8432 25.8166,81.1765 26.5,79.5C 27.7777,79.2178 28.7777,78.5511 29.5,77.5C 31.0438,80.248 31.7105,83.248 31.5,86.5C 31.0276,84.4687 30.0276,82.8021 28.5,81.5C 26.9582,82.3007 25.2915,82.634 23.5,82.5C 23.5,83.8333 23.5,85.1667 23.5,86.5C 19.8333,86.5 16.1667,86.5 12.5,86.5C 12.1818,81.9677 12.5151,77.6344 13.5,73.5 Z"/></g>
<g><path style="opacity:1" fill="#f8ea0e" d="M 26.5,79.5 C 24.9582,80.3007 23.2915,80.634 21.5,80.5C 21.5,81.8333 21.5,83.1667 21.5,84.5C 19.1667,84.5 16.8333,84.5 14.5,84.5C 14.5,82.5 14.5,80.5 14.5,78.5C 15.5,78.5 16.5,78.5 17.5,78.5C 17.5,76.5 17.5,74.5 17.5,72.5C 19.8333,72.5 22.1667,72.5 24.5,72.5C 24.393,74.9032 25.393,76.7365 27.5,78C 26.944,78.3826 26.6107,78.8826 26.5,79.5 Z"/></g>
<g><path style="opacity:1" fill="#e3bb0c" d="M 36.5,75.5 C 36.2852,77.1788 36.9519,78.1788 38.5,78.5C 38.5,78.8333 38.5,79.1667 38.5,79.5C 39.6257,83.9916 41.6257,87.9916 44.5,91.5C 41.8333,90.8333 39.1667,90.1667 36.5,89.5C 35.8333,89.5 35.1667,89.5 34.5,89.5C 34.5,88.1667 33.8333,87.5 32.5,87.5C 32.1866,84.7531 32.52,82.0865 33.5,79.5C 34.0568,77.6684 35.0568,76.3351 36.5,75.5 Z"/></g>
<g><path style="opacity:1" fill="#6b5d0c" d="M 36.5,75.5 C 35.0568,76.3351 34.0568,77.6684 33.5,79.5C 32.52,82.0865 32.1866,84.7531 32.5,87.5C 31.8333,87.5 31.5,87.1667 31.5,86.5C 31.7105,83.248 31.0438,80.248 29.5,77.5C 29.8333,77.5 30.1667,77.5 30.5,77.5C 31.1667,77.5 31.8333,77.5 32.5,77.5C 33.5071,77.5476 33.8404,76.5476 33.5,74.5C 34.791,74.2627 35.791,74.596 36.5,75.5 Z"/></g>
<g><path style="opacity:1" fill="#574a4e" d="M 13.5,72.5 C 13.5,72.8333 13.5,73.1667 13.5,73.5C 12.5151,77.6344 12.1818,81.9677 12.5,86.5C 16.1667,86.5 19.8333,86.5 23.5,86.5C 23.5,85.1667 23.5,83.8333 23.5,82.5C 25.2915,82.634 26.9582,82.3007 28.5,81.5C 27.8166,83.1765 26.4832,83.8432 24.5,83.5C 24.5,84.8333 24.5,86.1667 24.5,87.5C 20.1667,87.5 15.8333,87.5 11.5,87.5C 10.8917,82.0557 11.5583,77.0557 13.5,72.5 Z"/></g>
<g><path style="opacity:1" fill="#242313" d="M 34.5,89.5 C 35.1667,89.5 35.8333,89.5 36.5,89.5C 36.6138,91.7179 37.2804,93.7179 38.5,95.5C 37.1667,95.5 35.8333,95.5 34.5,95.5C 34.5,93.5 34.5,91.5 34.5,89.5 Z"/></g>
<g><path style="opacity:1" fill="#eee70e" d="M 36.5,89.5 C 39.1667,90.1667 41.8333,90.8333 44.5,91.5C 43.5539,94.3126 41.5539,95.646 38.5,95.5C 37.2804,93.7179 36.6138,91.7179 36.5,89.5 Z"/></g>
<g><path style="opacity:1" fill="#181512" d="M 38.5,79.5 C 39.7348,79.7214 40.7348,80.3881 41.5,81.5C 43.6516,84.6343 45.3183,87.9677 46.5,91.5C 46.6316,95.0328 44.9649,97.0328 41.5,97.5C 39.9704,97.3601 38.9704,96.6935 38.5,95.5C 41.5539,95.646 43.5539,94.3126 44.5,91.5C 41.6257,87.9916 39.6257,83.9916 38.5,79.5 Z"/></g>
</svg>
